<svg width="25" height="25" viewBox="0 0 25 25" fill="none" xmlns="http://www.w3.org/2000/svg">
<g clip-path="url(#clip0_3_49)">
<path d="M12.5 4.16669C13.3907 4.16669 14.3042 4.1896 15.1896 4.2271L16.2355 4.2771L17.2365 4.33648L18.174 4.40002L19.0302 4.46669C19.9596 4.53741 20.8342 4.93381 21.5 5.58606C22.1658 6.23832 22.58 7.1046 22.6698 8.03231L22.7115 8.47502L22.7896 9.42294C22.8625 10.4052 22.9167 11.4761 22.9167 12.5C22.9167 13.524 22.8625 14.5948 22.7896 15.5771L22.7115 16.525L22.6698 16.9677C22.58 17.8956 22.1656 18.762 21.4996 19.4143C20.8336 20.0666 19.9587 20.4629 19.0292 20.5334L18.175 20.599L17.2375 20.6636L16.2355 20.7229L15.1896 20.7729C14.2936 20.8118 13.3969 20.8319 12.5 20.8334C11.6032 20.8319 10.7065 20.8118 9.81046 20.7729L8.76462 20.7229L7.76358 20.6636L6.82608 20.599L5.96983 20.5334C5.04047 20.4626 4.16587 20.0662 3.50009 19.414C2.8343 18.7617 2.42003 17.8954 2.33025 16.9677L2.28858 16.525L2.21046 15.5771C2.13112 14.5533 2.08873 13.5269 2.08337 12.5C2.08337 11.4761 2.13754 10.4052 2.21046 9.42294L2.28858 8.47502L2.33025 8.03231C2.42 7.10476 2.83412 6.23862 3.49969 5.58638C4.16526 4.93414 5.03961 4.53764 5.96879 4.46669L6.824 4.40002L7.7615 4.33648L8.76358 4.2771L9.80941 4.2271C10.7058 4.18828 11.6028 4.16813 12.5 4.16669ZM12.5 6.25002C11.6407 6.25002 10.7563 6.27294 9.89587 6.30835L8.87712 6.35731L7.899 6.4146L6.98025 6.4771L6.13858 6.54273C5.69608 6.57371 5.27888 6.76057 4.96114 7.07011C4.64341 7.37965 4.4457 7.79181 4.40317 8.23335C4.28129 9.49273 4.16671 11.0604 4.16671 12.5C4.16671 13.9396 4.28129 15.5073 4.40317 16.7667C4.49171 17.675 5.21254 18.3813 6.13858 18.4573L6.98025 18.5219L7.899 18.5844L8.87712 18.6427L9.89587 18.6917C10.7563 18.7271 11.6407 18.75 12.5 18.75C13.3594 18.75 14.2438 18.7271 15.1042 18.6917L16.123 18.6427L17.1011 18.5854L18.0198 18.5229L18.8615 18.4573C19.304 18.4263 19.7212 18.2395 20.0389 17.9299C20.3567 17.6204 20.5544 17.2082 20.5969 16.7667C20.7188 15.5073 20.8334 13.9396 20.8334 12.5C20.8334 11.0604 20.7188 9.49273 20.5969 8.23335C20.5544 7.79181 20.3567 7.37965 20.0389 7.07011C19.7212 6.76057 19.304 6.57371 18.8615 6.54273L18.0198 6.47815L17.1011 6.41565L16.123 6.35731L15.1042 6.30835C14.2366 6.27112 13.3684 6.25167 12.5 6.25002ZM10.4167 9.97398C10.4166 9.87217 10.4414 9.77189 10.489 9.68185C10.5365 9.59181 10.6053 9.51474 10.6894 9.45735C10.7735 9.39996 10.8703 9.36397 10.9715 9.35253C11.0726 9.34108 11.175 9.35453 11.2698 9.39169L11.3542 9.43335L15.7292 11.9584C15.8163 12.0086 15.89 12.0792 15.944 12.164C15.9981 12.2489 16.0308 12.3455 16.0395 12.4457C16.0482 12.5459 16.0326 12.6467 15.994 12.7396C15.9554 12.8325 15.8949 12.9147 15.8177 12.9792L15.7292 13.0417L11.3542 15.5677C11.266 15.6188 11.1667 15.6475 11.0649 15.6514C10.9631 15.6553 10.8619 15.6343 10.7701 15.5901C10.6783 15.5459 10.5987 15.48 10.5382 15.398C10.4777 15.3161 10.4381 15.2206 10.423 15.1198L10.4167 15.0261V9.97398Z" fill="#737F96"/>
</g>
<defs>
<clipPath id="clip0_3_49">
<rect width="25" height="25" fill="white"/>
</clipPath>
</defs>
</svg>
