<svg width="23" height="23" viewBox="0 0 23 23" fill="none" xmlns="http://www.w3.org/2000/svg">
<path d="M1.375 10.375C1.375 6.13263 1.375 4.01087 2.6935 2.6935C4.012 1.37612 6.13263 1.375 10.375 1.375H12.625C16.8674 1.375 18.9891 1.375 20.3065 2.6935C21.6239 4.012 21.625 6.13263 21.625 10.375V12.625C21.625 16.8674 21.625 18.9891 20.3065 20.3065C18.988 21.6239 16.8674 21.625 12.625 21.625H10.375C6.13263 21.625 4.01087 21.625 2.6935 20.3065C1.37612 18.988 1.375 16.8674 1.375 12.625V10.375Z" stroke="#737F96" stroke-width="2"/>
<path d="M16.5625 8.125C17.4945 8.125 18.25 7.36948 18.25 6.4375C18.25 5.50552 17.4945 4.75 16.5625 4.75C15.6305 4.75 14.875 5.50552 14.875 6.4375C14.875 7.36948 15.6305 8.125 16.5625 8.125Z" fill="#737F96"/>
<path d="M11.5 14.875C13.364 14.875 14.875 13.364 14.875 11.5C14.875 9.63604 13.364 8.125 11.5 8.125C9.63604 8.125 8.125 9.63604 8.125 11.5C8.125 13.364 9.63604 14.875 11.5 14.875Z" stroke="#737F96" stroke-width="2"/>
</svg>
