<svg width="60" height="46" viewBox="0 0 60 46" fill="none" xmlns="http://www.w3.org/2000/svg">
<path d="M5.04163 21H30.1666V25.125H5.04163V21ZM0.854126 10.6875H21.7916V14.8125H0.854126V10.6875Z" fill="#EA4C49"/>
<path d="M59.3095 22.2499L53.0283 7.81238C52.8669 7.44145 52.5985 7.12532 52.2565 6.90315C51.9145 6.68099 51.5138 6.56254 51.1041 6.5625H44.8229V2.4375C44.8229 1.89049 44.6023 1.36589 44.2096 0.979093C43.817 0.592299 43.2844 0.375 42.7291 0.375H9.22913V4.5H40.6354V30.3967C39.6819 30.9432 38.8474 31.6698 38.1798 32.5348C37.5122 33.3999 37.0247 34.3863 36.7452 35.4375H23.5881C23.0785 33.4933 21.8665 31.7989 20.1794 30.6719C18.4923 29.5449 16.4459 29.0627 14.4237 29.3158C12.4015 29.5688 10.5425 30.5396 9.19495 32.0463C7.84744 33.5529 7.104 35.492 7.104 37.5C7.104 39.508 7.84744 41.4471 9.19495 42.9537C10.5425 44.4604 12.4015 45.4312 14.4237 45.6842C16.4459 45.9373 18.4923 45.4551 20.1794 44.3281C21.8665 43.2011 23.0785 41.5067 23.5881 39.5625H36.7452C37.2007 41.3326 38.2423 42.9026 39.7053 44.024C41.1683 45.1455 42.9691 45.7544 44.8229 45.7544C46.6766 45.7544 48.4775 45.1455 49.9405 44.024C51.4035 42.9026 52.4451 41.3326 52.9006 39.5625H57.3854C57.9407 39.5625 58.4732 39.3452 58.8659 38.9584C59.2585 38.5716 59.4791 38.047 59.4791 37.5V23.0625C59.4791 22.7831 59.4214 22.5066 59.3095 22.2499ZM15.5104 41.625C14.6822 41.625 13.8726 41.3831 13.1839 40.9298C12.4953 40.4766 11.9586 39.8323 11.6416 39.0786C11.3247 38.3248 11.2418 37.4954 11.4033 36.6953C11.5649 35.8951 11.9637 35.1601 12.5494 34.5832C13.135 34.0063 13.8811 33.6134 14.6934 33.4543C15.5057 33.2951 16.3477 33.3768 17.1129 33.689C17.878 34.0012 18.532 34.5299 18.9922 35.2083C19.4523 35.8866 19.6979 36.6842 19.6979 37.5C19.6979 38.594 19.2567 39.6432 18.4714 40.4168C17.6861 41.1904 16.621 41.625 15.5104 41.625ZM44.8229 10.6875H49.7223L54.2112 21H44.8229V10.6875ZM44.8229 41.625C43.9947 41.625 43.1851 41.3831 42.4964 40.9298C41.8078 40.4766 41.2711 39.8323 40.9541 39.0786C40.6372 38.3248 40.5543 37.4954 40.7158 36.6953C40.8774 35.8951 41.2762 35.1601 41.8619 34.5832C42.4475 34.0063 43.1936 33.6134 44.0059 33.4543C44.8182 33.2951 45.6602 33.3768 46.4254 33.689C47.1905 34.0012 47.8445 34.5299 48.3047 35.2083C48.7648 35.8866 49.0104 36.6842 49.0104 37.5C49.0104 38.594 48.5692 39.6432 47.7839 40.4168C46.9986 41.1904 45.9335 41.625 44.8229 41.625ZM55.2916 35.4375H52.9006C52.4394 33.6708 51.3961 32.1049 49.9342 30.9851C48.4724 29.8653 46.6747 29.2551 44.8229 29.25V25.125H55.2916V35.4375Z" fill="#EA4C49"/>
</svg>
