<svg width="32" height="33" viewBox="0 0 32 33" fill="none" xmlns="http://www.w3.org/2000/svg">
<path d="M16.0001 5.5C17.1401 5.5 18.3094 5.53025 19.4427 5.57975L20.7814 5.64575L22.0627 5.72413L23.2627 5.808L24.3587 5.896C25.5483 5.98935 26.6678 6.5126 27.52 7.37358C28.3722 8.23456 28.9025 9.37804 29.0174 10.6026L29.0707 11.187L29.1707 12.4383C29.2641 13.7349 29.3334 15.1484 29.3334 16.5C29.3334 17.8516 29.2641 19.2651 29.1707 20.5618L29.0707 21.813L29.0174 22.3974C28.9024 23.6222 28.372 24.7658 27.5195 25.6268C26.667 26.4879 25.5472 27.011 24.3574 27.104L23.2641 27.1906L22.0641 27.2759L20.7814 27.3543L19.4427 27.4203C18.2959 27.4715 17.148 27.4981 16.0001 27.5C14.8521 27.4981 13.7043 27.4715 12.5574 27.4203L11.2187 27.3543L9.93741 27.2759L8.73741 27.1906L7.64141 27.104C6.45183 27.0107 5.33235 26.4874 4.48014 25.6264C3.62793 24.7654 3.09767 23.622 2.98275 22.3974L2.92941 21.813L2.82941 20.5618C2.72786 19.2103 2.6736 17.8555 2.66675 16.5C2.66675 15.1484 2.73608 13.7349 2.82941 12.4383L2.92941 11.187L2.98275 10.6026C3.09762 9.37826 3.6277 8.23495 4.47963 7.374C5.33157 6.51304 6.45074 5.98966 7.64008 5.896L8.73475 5.808L9.93475 5.72413L11.2174 5.64575L12.5561 5.57975C13.7034 5.5285 14.8517 5.50191 16.0001 5.5ZM16.0001 8.25C14.9001 8.25 13.7681 8.28025 12.6667 8.327L11.3627 8.39163L10.1107 8.46725L8.93475 8.54975L7.85741 8.63638C7.29101 8.67727 6.757 8.92392 6.35029 9.33251C5.94359 9.7411 5.69053 10.2852 5.63608 10.868C5.48008 12.5304 5.33341 14.5998 5.33341 16.5C5.33341 18.4003 5.48008 20.4696 5.63608 22.132C5.74941 23.331 6.67208 24.2633 7.85741 24.3636L8.93475 24.4489L10.1107 24.5314L11.3627 24.6084L12.6667 24.673C13.7681 24.7198 14.9001 24.75 16.0001 24.75C17.1001 24.75 18.2321 24.7198 19.3334 24.673L20.6374 24.6084L21.8894 24.5328L23.0654 24.4503L24.1427 24.3636C24.7092 24.3227 25.2432 24.0761 25.6499 23.6675C26.0566 23.2589 26.3096 22.7148 26.3641 22.132C26.5201 20.4696 26.6667 18.4003 26.6667 16.5C26.6667 14.5998 26.5201 12.5304 26.3641 10.868C26.3096 10.2852 26.0566 9.7411 25.6499 9.33251C25.2432 8.92392 24.7092 8.67727 24.1427 8.63638L23.0654 8.55113L21.8894 8.46863L20.6374 8.39163L19.3334 8.327C18.2229 8.27785 17.1116 8.25218 16.0001 8.25ZM13.3334 13.1656C13.3333 13.0312 13.3651 12.8989 13.4259 12.78C13.4867 12.6612 13.5748 12.5594 13.6824 12.4837C13.7901 12.4079 13.914 12.3604 14.0435 12.3453C14.173 12.3302 14.3041 12.3479 14.4254 12.397L14.5334 12.452L20.1334 15.785C20.2449 15.8514 20.3393 15.9445 20.4084 16.0565C20.4776 16.1685 20.5195 16.296 20.5306 16.4283C20.5417 16.5606 20.5217 16.6937 20.4723 16.8163C20.4229 16.9389 20.3455 17.0473 20.2467 17.1325L20.1334 17.215L14.5334 20.5494C14.4206 20.6168 14.2934 20.6547 14.1631 20.6598C14.0328 20.665 13.9033 20.6372 13.7858 20.5789C13.6682 20.5206 13.5663 20.4336 13.4889 20.3254C13.4114 20.2172 13.3608 20.0911 13.3414 19.9581L13.3334 19.8344V13.1656Z" fill="#737F96"/>
</svg>
